<svg width="12" height="12" viewBox="0 0 12 12" fill="none" xmlns="http://www.w3.org/2000/svg">
<path fill-rule="evenodd" clip-rule="evenodd" d="M0.88403 0.0215119C0.468068 0.0914656 0.0928871 0.475249 0.0229742 0.902332C-0.00765808 1.08934 -0.00765808 10.9077 0.0229742 11.0947C0.0947152 11.533 0.46692 11.9053 0.905077 11.977C1.09203 12.0077 10.908 12.0077 11.0949 11.977C11.5331 11.9053 11.9053 11.533 11.977 11.0947C12.0077 10.9077 12.0077 1.08934 11.977 0.902332C11.9053 0.464067 11.5331 0.0917703 11.0949 0.0200116C10.9262 -0.00762761 1.04868 -0.00617415 0.88403 0.0215119ZM9.55128 3.03482C9.59415 3.05516 9.73023 3.17592 9.85365 3.30314L10.0781 3.53448V3.65833V3.78218L7.68161 6.18182C6.36356 7.50163 5.24298 8.60947 5.19142 8.64372C5.10958 8.69808 5.07386 8.70598 4.91017 8.70608C4.75744 8.70615 4.70747 8.69663 4.64065 8.65464C4.59553 8.62628 3.96538 8.00875 3.24028 7.28234L1.92194 5.96157V5.85462C1.92194 5.77384 1.93835 5.72531 1.98907 5.65625C2.08971 5.51918 2.39851 5.22968 2.4752 5.20052C2.64137 5.13732 2.6289 5.12698 3.80894 6.3048L4.91078 7.40457L7.07815 5.23657C8.27019 4.0442 9.27726 3.05291 9.31609 3.03374C9.40675 2.98899 9.45517 2.9892 9.55128 3.03482Z" fill="#AEAEAF"/>
</svg>
