<svg width="20" height="20" viewBox="0 0 20 20" fill="none" xmlns="http://www.w3.org/2000/svg">
<path fill-rule="evenodd" clip-rule="evenodd" d="M19.0082 0.0456C18.9469 0.0695647 16.895 2.09148 14.4485 4.53878L10.0002 8.98836L5.55167 4.53989C0.715262 -0.296466 1.02426 -0.0168332 0.603685 0.062112C0.384186 0.103303 0.117417 0.370261 0.0762554 0.589915C-0.00263383 1.01079 -0.282069 0.701616 4.55069 5.54123L8.99577 9.99264L4.52852 14.4666C-0.319885 19.3223 -0.0470062 19.0209 0.0304113 19.434C0.0699674 19.6448 0.354887 19.9299 0.565556 19.9695C0.978643 20.047 0.676598 20.3209 5.5292 15.4683L9.99975 10.9978L14.4706 15.4682C19.3307 20.3279 19.0206 20.0471 19.4409 19.9682C19.6604 19.9271 19.9271 19.6601 19.9683 19.4404C20.0472 19.0195 20.3286 19.3308 15.4716 14.4668L11.0042 9.99309L15.4714 5.5191C20.315 0.668235 20.0468 0.964157 19.9702 0.555552C19.894 0.149135 19.4058 -0.109657 19.0082 0.0456Z" fill="#AEAEAF"/>
</svg>
