<svg width="16" height="16" viewBox="0 0 16 16" fill="none" xmlns="http://www.w3.org/2000/svg">
<path fill-rule="evenodd" clip-rule="evenodd" d="M2.76965 0.0422481C2.38176 0.126391 2.30703 0.184751 1.29325 1.19582C0.408559 2.07815 0.340139 2.15444 0.236347 2.37392C0.0653283 2.73562 0.0226441 2.93213 0.0041267 3.44353C-0.014579 3.95994 0.0277285 4.30114 0.184185 4.89512C1.12672 8.47355 5.35148 13.1799 9.39505 15.1561C10.5942 15.7421 11.4995 15.997 12.3924 16C12.9389 16.0018 13.2153 15.9466 13.594 15.7604C13.8379 15.6404 13.902 15.5835 14.7824 14.7066C15.7682 13.7247 15.8272 13.6504 15.9511 13.2343C16.0163 13.0152 16.0163 12.6043 15.9511 12.3851C15.8388 12.0076 15.793 11.9528 14.5461 10.7024C13.888 10.0424 13.2649 9.44231 13.1613 9.3688C12.5386 8.92681 11.739 8.98811 11.2182 9.51775C11.0605 9.67803 10.9999 9.77187 10.891 10.024C10.8175 10.1942 10.7192 10.385 10.6725 10.448C10.3726 10.8532 9.79349 11.1112 9.30089 11.0591C8.56651 10.9813 7.47081 10.3198 6.54265 9.39365C5.41902 8.27247 4.75629 6.98247 4.91792 6.23109C4.99318 5.88122 5.23953 5.51511 5.53088 5.32006C5.602 5.27247 5.75199 5.19452 5.86419 5.1469C6.19016 5.00843 6.27035 4.96303 6.42166 4.83126C6.94391 4.3764 7.05822 3.52508 6.67808 2.92152C6.56619 2.74391 4.40204 0.560689 4.13799 0.359077C3.92749 0.198331 3.65121 0.0745411 3.40251 0.029481C3.1669 -0.0132009 3.01072 -0.0100404 2.76965 0.0422481Z" fill="#AEAEAF"/>
</svg>
