<svg width="13" height="16" viewBox="0 0 13 16" fill="none" xmlns="http://www.w3.org/2000/svg">
<path fill-rule="evenodd" clip-rule="evenodd" d="M5.8305 0.0399885C4.99861 0.174226 4.25537 0.578785 3.67282 1.21445C3.03376 1.91178 2.70258 2.71702 2.65704 3.68423C2.59343 5.03512 3.23926 6.3265 4.35273 7.07498C4.90041 7.44311 5.42865 7.63004 6.06847 7.68207C7.25438 7.7785 8.26563 7.3959 9.08198 6.54185C9.72823 5.86578 10.0587 5.13018 10.1392 4.1887C10.2467 2.93106 9.78568 1.75978 8.86146 0.9426C8.26541 0.415529 7.71542 0.155215 6.95759 0.0413956C6.59351 -0.0132939 6.16406 -0.0138255 5.8305 0.0399885ZM3.06389 7.75208C1.68634 7.90142 0.731751 8.91607 0.28661 10.7041C-0.0102107 11.8964 -0.0865483 13.3291 0.104996 14.1124C0.25889 14.7417 0.766386 15.3803 1.35424 15.6843C1.62127 15.8224 2.00274 15.9369 2.32083 15.9745C2.5093 15.9967 3.94798 16.0043 6.69867 15.9977L10.7958 15.9877L11.0547 15.9147C12.0159 15.6439 12.6757 14.9828 12.9157 14.0499C13.0408 13.5639 13.0248 12.4075 12.8803 11.4937C12.5592 9.46234 11.7491 8.24275 10.4676 7.86155C10.1746 7.77441 9.65037 7.70812 9.49498 7.7386C9.34632 7.76775 9.13851 7.88172 8.66943 8.19132C8.16973 8.52111 8.10046 8.55867 7.72627 8.70257C7.29289 8.8692 6.93523 8.93946 6.52013 8.93952C6.0911 8.93955 5.76303 8.87924 5.33031 8.72079C4.9217 8.57117 4.904 8.5616 4.26585 8.14557C3.92934 7.92619 3.68037 7.78566 3.58143 7.75934C3.41234 7.71431 3.41237 7.71431 3.06389 7.75208Z" fill="#AEAEAF"/>
</svg>
