<svg width="16" height="12" viewBox="0 0 16 12" fill="none" xmlns="http://www.w3.org/2000/svg">
<path fill-rule="evenodd" clip-rule="evenodd" d="M1.14472 0.0524162C0.348129 0.245133 -0.153207 1.05704 0.0479025 1.82872C0.109304 2.06434 0.224545 2.27483 0.381564 2.43813C0.52174 2.58394 7.17772 7.03164 7.42129 7.14228C7.79261 7.31092 8.23507 7.30477 8.61404 7.12564C8.91136 6.98511 15.4319 2.62379 15.5975 2.45468C16.3758 1.65995 15.951 0.312776 14.8397 0.0509797C14.5472 -0.0179125 1.42979 -0.0165385 1.14472 0.0524162ZM0 7.00975C0 9.53899 0.0104992 10.6995 0.0344348 10.8146C0.148926 11.365 0.594828 11.814 1.15907 11.9469C1.45342 12.0163 14.4928 12.0184 14.8198 11.9491C15.3885 11.8287 15.8482 11.373 15.9643 10.8146C16.004 10.624 16.0147 3.3634 15.9753 3.38088C15.9624 3.3866 14.4513 4.39216 12.6173 5.61545C10.7832 6.83873 9.18216 7.8902 9.05929 7.95203C8.71388 8.12589 8.42103 8.19225 7.99937 8.19225C7.57772 8.19225 7.28487 8.12589 6.93946 7.95203C6.81659 7.8902 5.2155 6.83873 3.38145 5.61545C1.54744 4.39216 0.0363409 3.3866 0.0234357 3.38088C0.0105304 3.37514 0 5.00816 0 7.00975Z" fill="#AEAEAF"/>
</svg>
