<svg width="20" height="26" viewBox="0 0 20 26" fill="none" xmlns="http://www.w3.org/2000/svg">
<path fill-rule="evenodd" clip-rule="evenodd" d="M3.72242 0.0451895C1.49014 0.41915 -0.0962673 2.38317 0.0388434 4.60549C0.11938 5.93059 0.746621 7.08336 1.82695 7.89186C2.26186 8.21734 3.26933 8.65996 3.3628 8.5666C3.38021 8.54928 3.31194 8.23076 3.21119 7.85878C3.11045 7.48685 3.01326 7.1072 2.99524 7.01512C2.97162 6.89458 2.90244 6.80651 2.74793 6.70041C2.44029 6.48911 2.05832 6.05443 1.86945 5.70074C1.64444 5.27927 1.54665 4.87228 1.54491 4.34957C1.54222 3.55434 1.80796 2.92284 2.385 2.35339C2.97819 1.76798 3.5842 1.51644 4.40153 1.51644C5.22126 1.51644 5.82849 1.769 6.41394 2.35339C7.04591 2.98418 7.26568 3.55648 7.24395 4.51463C7.23453 4.93056 7.25041 5.13464 7.29918 5.22256C7.33685 5.2905 7.4878 5.71268 7.63462 6.16079L7.90158 6.97548L8.09167 6.67891C8.3341 6.30058 8.49894 5.92738 8.64005 5.43731C8.73276 5.11538 8.75149 4.92538 8.74859 4.33677C8.74549 3.71746 8.72741 3.56735 8.609 3.17779C8.09834 1.49779 6.76332 0.321684 5.05244 0.0445289C4.68433 -0.0150792 4.08035 -0.0148251 3.72242 0.0451895ZM4.46507 4.05194C4.14892 4.16003 4.02171 4.26522 3.87468 4.54004C3.78244 4.71251 3.76655 4.82415 3.77012 5.27688C3.77714 6.16693 3.91938 6.73161 5.26743 11.2224C6.74912 16.1585 6.85582 16.5487 6.97255 17.4563C7.01634 17.797 6.91579 18.0142 6.62821 18.2005C6.26859 18.4334 5.96462 18.5035 5.21606 18.5259C4.62415 18.5437 4.39858 18.525 3.59021 18.3909C1.84751 18.1018 1.19711 18.206 0.496051 18.8871C0.156289 19.2171 0.00254569 19.5612 5.11871e-05 19.9971C-0.00239241 20.4266 0.0818097 20.5772 0.434553 20.7738C0.643634 20.8903 0.72748 20.9012 1.69917 20.9376C3.26037 20.9963 4.35368 21.2135 5.33555 21.6601C5.78043 21.8625 6.48516 22.3014 7.23147 22.8407C8.23172 23.5637 8.59078 23.7543 10.0321 24.3273C10.539 24.5288 11.1002 24.7784 11.2794 24.8818C11.6567 25.0998 12.1899 25.6109 12.2889 25.8494C12.3264 25.9399 12.3745 26.0074 12.3957 25.9994C12.4169 25.9913 14.0637 25.3673 16.0552 24.6127L19.6761 23.2406L19.6378 22.9611C19.5734 22.4898 19.6136 22.037 19.8103 21.0176C19.9945 20.0625 19.999 20.0107 20 18.845C20.0011 17.4862 19.9349 16.9759 19.5652 15.4911C18.9816 13.1479 18.1505 11.4624 17.014 10.317C16.27 9.56719 15.4976 9.21025 15.0151 9.39334C14.9411 9.42144 14.7506 9.56698 14.5918 9.71674C14.4331 9.8665 14.2517 10.0158 14.1887 10.0486C14.0439 10.1237 13.9599 10.0811 13.5221 9.71039C12.9479 9.22422 12.5545 9.13011 12.0632 9.36138C11.7269 9.51972 11.5946 9.66979 11.3505 10.17C11.1014 10.6803 11.003 10.7181 10.6626 10.4343C10.2403 10.082 9.89856 9.99395 9.37527 10.1024C8.86084 10.209 8.65594 10.466 8.57459 11.1067C8.51283 11.5929 8.48596 11.6798 8.39727 11.6798C8.18325 11.6798 7.93218 10.9655 7.18209 8.22227C6.7259 6.55395 6.46098 5.7757 6.12625 5.12072C5.63794 4.16506 5.11608 3.82931 4.46507 4.05194Z" fill="white"/>
</svg>
